<svg width="124" height="124" viewBox="0 0 124 124" fill="none" xmlns="http://www.w3.org/2000/svg">
<g clip-path="url(#clip0_40_528)">
<path opacity="0.982" fill-rule="evenodd" clip-rule="evenodd" d="M45.4102 -0.121094C49.5274 -0.121094 53.6446 -0.121094 57.7617 -0.121094C61.7201 1.16605 63.8191 3.91084 64.0586 8.11328C74.3116 8.07291 84.5642 8.11328 94.8164 8.23438C97.9014 9.1396 99.96 11.1174 100.992 14.168C101.353 16.4981 101.434 18.8392 101.234 21.1914C100.899 23.061 99.8089 24.2316 97.9649 24.7031C96.9995 24.824 96.0308 24.8644 95.0586 24.8242C94.3728 38.5403 93.8077 52.2643 93.3633 65.9961C106.812 66.8144 115.894 73.515 120.609 86.0977C123.768 97.9673 120.983 108.18 112.254 116.734C107.659 120.566 102.412 122.947 96.5118 123.879C94.0092 123.879 91.5065 123.879 89.0039 123.879C87.4757 123.572 85.942 123.168 84.4024 122.668C83.3452 123.127 82.2956 123.53 81.2539 123.879C61.3946 123.879 41.5352 123.879 21.6758 123.879C16.3053 122.423 13.0358 118.951 11.8672 113.465C10.5756 83.9189 9.3243 54.3721 8.11331 24.8242C5.15279 25.435 3.0942 24.3854 1.93753 21.6758C1.72572 19.0802 1.80645 16.4968 2.17972 13.9258C3.15213 10.8546 5.21072 8.95743 8.3555 8.23438C18.6078 8.11328 28.8603 8.07291 39.1133 8.11328C39.3008 3.89115 41.3998 1.14636 45.4102 -0.121094ZM46.1367 4.23828C49.7705 4.19793 53.4033 4.23831 57.0352 4.35938C58.6658 5.07555 59.5537 6.32686 59.6992 8.11328C54.2905 8.11328 48.8815 8.11328 43.4727 8.11328C43.5977 6.29356 44.4858 5.0019 46.1367 4.23828Z" fill="#010101"/>
<path fill-rule="evenodd" clip-rule="evenodd" d="M9.08199 12.4727C36.6112 12.3919 64.1397 12.4727 91.6679 12.7148C92.1588 13.3739 92.5221 14.1004 92.7578 14.8945C92.8789 16.7495 92.9191 18.6063 92.8789 20.4648C63.9779 20.4648 35.0767 20.4648 6.17574 20.4648C6.13544 18.6063 6.17582 16.7495 6.29684 14.8945C6.81669 13.6072 7.74509 12.7998 9.08199 12.4727Z" fill="#9D9D9D"/>
<path fill-rule="evenodd" clip-rule="evenodd" d="M9.08203 12.4727C37.2966 12.1903 65.5519 12.15 93.8477 12.3516C95.2395 12.8551 96.2487 13.7835 96.875 15.1368C96.9961 16.911 97.0363 18.687 96.9961 20.4649C95.6236 20.4649 94.2514 20.4649 92.8789 20.4649C92.9191 18.6064 92.8789 16.7496 92.7578 14.8946C92.5222 14.1005 92.1589 13.3739 91.668 12.7149C64.1397 12.4727 36.6112 12.392 9.08203 12.4727Z" fill="#727272"/>
<path fill-rule="evenodd" clip-rule="evenodd" d="M12.4727 24.8242C37.1758 24.8242 61.8789 24.8242 86.582 24.8242C85.9138 38.9476 85.3488 53.0751 84.8867 67.207C83.4806 67.595 82.1081 68.0794 80.7695 68.6602C80.608 58.4076 80.4467 48.1549 80.2852 37.9023C79.1415 34.0576 76.5581 32.4834 72.5352 33.1797C70.4766 33.9467 69.0639 35.3594 68.2969 37.418C68.2162 51.707 68.1353 65.9961 68.0547 80.2852C64.3981 86.4411 63.1872 93.061 64.4219 100.145C66.1547 108.571 70.6352 115.07 77.8633 119.641C59.457 119.802 41.0508 119.802 22.6445 119.641C18.9209 118.662 16.7009 116.28 15.9844 112.496C14.8675 83.2694 13.6969 54.0456 12.4727 24.8242Z" fill="#7E8D93"/>
<path fill-rule="evenodd" clip-rule="evenodd" d="M12.4727 24.8243C38.5076 24.5823 64.5829 24.5014 90.6992 24.5821C90.134 38.4711 89.488 52.3564 88.7617 66.2383C87.4491 66.5103 86.1575 66.8332 84.8867 67.2071C85.3488 53.0752 85.9138 38.9477 86.582 24.8243C61.8789 24.8243 37.1758 24.8243 12.4727 24.8243Z" fill="#535B5F"/>
<path fill-rule="evenodd" clip-rule="evenodd" d="M27.0039 33.0586C30.8833 32.5139 33.5071 34.0477 34.875 37.6602C35.0365 60.668 35.0365 83.6758 34.875 106.684C33.9 109.758 31.8009 111.372 28.5781 111.527C25.6186 111.152 23.681 109.537 22.7656 106.684C22.6042 83.6758 22.6042 60.668 22.7656 37.6602C23.4813 35.4521 24.8942 33.9184 27.0039 33.0586Z" fill="black"/>
<path fill-rule="evenodd" clip-rule="evenodd" d="M49.7696 33.0586C53.6429 32.5113 56.2665 34.0451 57.6407 37.6602C57.8022 60.668 57.8022 83.6758 57.6407 106.684C56.6639 109.756 54.5649 111.37 51.3438 111.527C48.4746 111.16 46.5371 109.626 45.5313 106.926C45.3698 83.7565 45.3698 60.5874 45.5313 37.418C46.3497 35.3488 47.7623 33.8956 49.7696 33.0586Z" fill="#010101"/>
<path fill-rule="evenodd" clip-rule="evenodd" d="M27.9727 37.1758C29.2163 36.9157 30.1447 37.3194 30.7579 38.3867C30.9194 60.9102 30.9194 83.4336 30.7579 105.957C29.4663 107.895 28.1745 107.895 26.8829 105.957C26.7213 83.4336 26.7213 60.9102 26.8829 38.3867C27.1311 37.8571 27.4944 37.4534 27.9727 37.1758Z" fill="#5F7C8A"/>
<path fill-rule="evenodd" clip-rule="evenodd" d="M50.4962 37.1758C51.8151 36.8946 52.8243 37.2984 53.5235 38.3867C53.685 60.9102 53.685 83.4336 53.5235 105.957C52.2319 107.895 50.9401 107.895 49.6485 105.957C49.487 83.4336 49.487 60.9102 49.6485 38.3867C49.89 37.9452 50.1726 37.5415 50.4962 37.1758Z" fill="#5F7B89"/>
<path fill-rule="evenodd" clip-rule="evenodd" d="M72.5351 74.4726C72.2932 62.6466 72.2125 50.7794 72.2929 38.871C72.6419 37.2845 73.6107 36.7599 75.1992 37.2968C75.7383 37.594 76.1016 38.0382 76.289 38.6289C76.4506 49.5273 76.4506 60.4257 76.289 71.3242C74.9207 72.2498 73.6693 73.2992 72.5351 74.4726Z" fill="#5E7A88"/>
<path fill-rule="evenodd" clip-rule="evenodd" d="M72.2929 38.8711C72.2125 50.7795 72.2932 62.6466 72.5351 74.4727C72.5206 74.6042 72.4399 74.6848 72.2929 74.7148C71.9706 62.727 71.9706 50.779 72.2929 38.8711Z" fill="#1F292D"/>
<path fill-rule="evenodd" clip-rule="evenodd" d="M80.2851 37.9023C80.4467 48.1549 80.608 58.4076 80.7695 68.6602C80.755 68.7917 80.6743 68.8723 80.5273 68.9023C80.2851 58.5704 80.2045 48.237 80.2851 37.9023Z" fill="#191D1F"/>
<path fill-rule="evenodd" clip-rule="evenodd" d="M99.1758 71.082C110.861 78.2306 115.341 88.5641 112.617 102.082C110.293 109.566 105.732 115.217 98.9336 119.035C86.5135 121.28 77.1087 117.001 70.7188 106.199C66.327 96.2879 67.4573 87.0848 74.1094 78.5898C81.027 71.2651 89.3825 68.7626 99.1758 71.082Z" fill="#D31A1B"/>
<path fill-rule="evenodd" clip-rule="evenodd" d="M99.1758 71.082C109.356 74.0387 115.452 80.739 117.461 91.1836C118.464 103.35 113.58 112.19 102.809 117.703C101.536 118.222 100.244 118.666 98.9336 119.035C105.732 115.217 110.293 109.566 112.617 102.082C115.341 88.5641 110.861 78.2307 99.1758 71.082Z" fill="#C51E1D"/>
<path fill-rule="evenodd" clip-rule="evenodd" d="M91.668 74.2305C97.1869 74.222 100.335 76.9263 101.113 82.3438C100.748 87.0747 99.4967 91.5551 97.3594 95.7852C95.697 98.9012 93.3156 99.6679 90.2148 98.086C87.7118 95.1051 86.1376 91.674 85.4922 87.793C85.0652 85.9981 84.7826 84.1817 84.6445 82.3438C85.1381 78.0171 87.4791 75.3126 91.668 74.2305Z" fill="#030100"/>
<path fill-rule="evenodd" clip-rule="evenodd" d="M91.9102 78.3476C94.9574 78.2474 96.6527 79.7005 96.9961 82.707C96.5548 86.4963 95.5459 90.1291 93.9688 93.6054C93.7166 94.1104 93.3534 94.5141 92.8789 94.8164C92.4045 94.5141 92.0412 94.1104 91.7891 93.6054C90.2119 90.1291 89.203 86.4963 88.7617 82.707C88.8797 80.5724 89.9291 79.1192 91.9102 78.3476Z" fill="#FADB00"/>
<path fill-rule="evenodd" clip-rule="evenodd" d="M91.1836 103.293C94.7161 102.859 97.2591 104.231 98.8125 107.41C99.4768 112.962 97.0145 115.667 91.4258 115.523C86.9942 113.615 85.7431 110.427 87.6718 105.957C88.6287 104.738 89.7992 103.85 91.1836 103.293Z" fill="#050200"/>
<path fill-rule="evenodd" clip-rule="evenodd" d="M91.9101 107.41C93.579 107.062 94.6284 107.708 95.0586 109.348C94.4507 111.57 93.1993 112.055 91.3047 110.801C90.6793 109.498 90.8811 108.367 91.9101 107.41Z" fill="#F4D600"/>
</g>
<defs>
<clipPath id="clip0_40_528">
<rect width="124" height="124" fill="white"/>
</clipPath>
</defs>
</svg>
